<svg version="1.1" id="Layer_1" xmlns="http://www.w3.org/2000/svg" xmlns:xlink="http://www.w3.org/1999/xlink" x="0px" y="0px"
	 width="100%" viewBox="0 0 500 500" enable-background="new 0 0 500 500" xml:space="preserve">
<path fill="none" opacity="1.000000" stroke="none" 
	d="
M277.000000,501.000000 
	C184.666687,501.000000 92.833374,501.000000 1.000049,501.000000 
	C1.000033,334.333405 1.000033,167.666794 1.000016,1.000139 
	C167.666565,1.000093 334.333130,1.000093 500.999756,1.000046 
	C500.999847,167.666519 500.999847,334.333038 500.999939,500.999786 
	C426.500000,501.000000 352.000000,501.000000 277.000000,501.000000 
M248.982376,294.511108 
	C251.484818,295.364288 253.983322,296.917847 256.490509,296.931946 
	C262.635559,296.966522 268.805603,296.486938 274.924957,295.833862 
	C279.184509,295.379333 282.226318,296.366638 285.441254,299.587128 
	C292.928528,307.087372 305.787689,307.323273 314.381836,300.864044 
	C323.216034,294.224396 326.189606,282.655426 321.618164,272.710480 
	C317.060638,262.795685 305.964905,257.302124 295.571747,259.783997 
	C286.739014,261.893250 281.282684,267.734650 277.873169,276.480988 
	C265.228668,265.518799 252.986954,254.905823 240.547531,244.121460 
	C255.689529,226.530930 270.439819,209.395432 285.922363,191.409332 
	C270.649445,192.429474 256.864105,193.214706 243.114410,194.410065 
	C240.971207,194.596390 238.515167,196.228577 237.012390,197.913376 
	C227.699615,208.354309 218.625732,219.008133 209.444977,229.567337 
	C208.683167,230.443512 207.717392,231.142365 206.361633,232.358368 
	C203.811356,196.878571 201.323807,162.271439 198.819366,127.429192 
	C186.626205,128.316849 175.073624,129.157883 163.185059,130.023376 
	C167.322357,187.976959 171.415665,245.314285 175.530350,302.951111 
	C187.717056,302.069031 199.244995,301.234650 211.112701,300.375671 
	C210.220673,286.915009 209.369476,274.070587 208.518280,261.226166 
	C208.927399,261.019318 209.336502,260.812500 209.745621,260.605652 
	C222.646881,271.750244 235.548126,282.894806 248.982376,294.511108 
M430.428070,351.925537 
	C431.346954,352.690948 432.265839,353.456360 433.636047,354.597748 
	C434.097260,349.381439 434.440948,345.494110 434.845612,340.917175 
	C440.305267,344.816345 439.111237,352.421875 446.341888,354.384949 
	C445.717590,352.558075 445.608276,351.526184 445.079651,350.799255 
	C438.360901,341.560211 437.817413,332.450928 445.462036,323.423798 
	C445.649750,323.202148 445.616272,322.793213 445.927063,321.358643 
	C438.774811,323.863373 439.103058,331.799866 433.911407,335.756317 
	C433.911407,330.805786 433.911407,326.534790 433.911407,322.263824 
	C433.366272,322.059052 432.821106,321.854279 432.275970,321.649536 
	C431.652618,322.946655 430.514465,324.233948 430.489532,325.542480 
	C430.327454,334.037201 430.407532,342.536560 430.428070,351.925537 
M339.909119,322.016663 
	C337.433685,332.504608 334.958221,342.992554 332.482758,353.480499 
	C332.988953,353.762909 333.495148,354.045349 334.001312,354.327759 
	C334.887085,353.687561 336.466492,353.118103 336.540283,352.395050 
	C336.886047,349.006897 338.124512,347.515533 341.884369,347.616425 
	C345.345398,347.709290 345.957977,349.373474 346.416016,352.136200 
	C346.554260,352.969879 348.217834,353.550659 349.182678,354.247284 
	C349.566040,353.983765 349.949402,353.720245 350.332764,353.456757 
	C348.477448,343.557068 346.709595,333.638763 344.613281,323.790375 
	C344.430969,322.933807 342.085022,322.537781 339.909119,322.016663 
M112.583771,325.897888 
	C112.583618,327.230957 112.589302,328.564026 112.582298,329.897064 
	C112.552544,335.561249 112.744621,341.241974 112.330284,346.878082 
	C112.225029,348.309753 110.187080,349.599365 109.037193,350.954254 
	C107.801109,349.658295 106.214386,348.539795 105.440285,347.010071 
	C104.824898,345.793976 105.154305,344.075317 105.148613,342.579468 
	C105.126419,336.747437 105.213791,330.913361 105.065865,325.084961 
	C105.039581,324.049377 104.087151,323.037323 103.562393,322.014404 
	C102.905373,322.916382 101.687515,323.813416 101.679512,324.721100 
	C101.611984,332.380157 101.639221,340.045471 101.901611,347.699860 
	C102.051712,352.078613 104.692352,354.356171 109.066330,354.308960 
	C113.558456,354.260498 115.822266,351.566071 115.938400,347.353302 
	C116.144974,339.860413 116.083778,332.357361 115.957451,324.861542 
	C115.941345,323.905609 114.863937,322.967590 114.278198,322.021271 
	C113.714439,323.013550 113.150688,324.005829 112.583771,325.897888 
M243.707062,348.470154 
	C242.885040,347.105011 242.063034,345.739868 241.241028,344.374725 
	C240.898926,346.128601 239.669388,348.630951 240.391571,349.487244 
	C242.123718,351.541107 244.772308,354.063934 247.051773,354.064606 
	C249.325027,354.065277 252.626297,351.707642 253.651413,349.526123 
	C255.574158,345.434418 253.842072,341.463440 250.434280,338.379944 
	C248.471848,336.604248 245.793976,335.021698 244.948380,332.782013 
	C244.147705,330.661346 244.409805,326.577728 245.821533,325.524200 
	C248.380081,323.614777 250.131927,326.048126 250.859955,328.875305 
	C251.033661,329.549805 252.140656,329.983978 252.818359,330.528687 
	C253.240189,329.754883 254.042740,328.969177 254.018906,328.209381 
	C253.907135,324.645844 252.218430,322.218811 248.485443,321.651337 
	C244.496170,321.044952 241.476669,322.479584 240.342178,326.430817 
	C239.274155,330.150543 239.958557,333.677399 242.928436,336.512512 
	C245.089020,338.575073 247.751740,340.388031 249.136444,342.894623 
	C250.145203,344.720642 249.434601,347.496460 249.490509,349.848846 
	C247.655884,349.640564 245.821243,349.432251 243.707062,348.470154 
M397.037018,327.391693 
	C396.122040,322.729340 393.049011,321.021423 388.655518,321.696075 
	C384.507996,322.332947 382.905548,325.251648 382.904816,329.220428 
	C382.903748,335.210144 382.522644,341.239197 383.116547,347.170074 
	C383.352051,349.521851 385.341095,352.900543 387.295197,353.564331 
	C389.586212,354.342560 393.767639,353.553894 395.196564,351.836700 
	C396.895142,349.795441 396.587708,346.049805 396.962280,343.019562 
	C396.987793,342.813232 395.446289,342.413208 394.280426,341.968628 
	C394.108246,343.705231 394.367249,345.224945 393.766602,346.231781 
	C392.733490,347.963379 391.164551,349.375305 389.820526,350.921448 
	C388.722168,349.328491 386.789429,347.791840 386.677368,346.132263 
	C386.297241,340.502869 386.340637,334.814789 386.729401,329.184174 
	C386.830139,327.724976 388.782288,326.393585 389.884033,325.003510 
	C391.161438,326.243408 392.586548,327.368317 393.669739,328.759430 
	C394.541840,329.879425 395.000488,331.321320 395.642578,332.620361 
	C396.134094,331.123199 396.625610,329.626007 397.037018,327.391693 
M67.356880,338.514740 
	C65.106590,337.699036 62.856297,336.883362 60.419754,336.000153 
	C60.419754,332.660400 60.419754,328.981384 60.419754,325.088837 
	C62.834118,325.088837 64.835175,325.219604 66.803474,325.022766 
	C67.562462,324.946869 68.247047,324.126801 68.965523,323.645782 
	C68.341629,323.075714 67.738838,322.042145 67.090340,322.012604 
	C63.538506,321.850922 59.975460,321.935547 56.150898,321.935547 
	C56.150898,332.253235 56.070633,341.709076 56.265285,351.159271 
	C56.286594,352.193787 57.888657,353.195740 58.757538,354.212769 
	C59.227676,353.881561 59.697819,353.550323 60.167957,353.219086 
	C60.167957,348.961853 60.167957,344.704620 60.167957,340.619965 
	C62.817978,340.119293 65.017067,339.703827 67.356880,338.514740 
M291.956635,351.174103 
	C292.562042,352.105743 293.167480,353.037384 293.772919,353.969025 
	C294.422760,352.876038 295.614716,351.793518 295.635986,350.688446 
	C295.794891,342.423340 295.722443,334.153778 295.722443,325.810425 
	C297.148834,325.578705 298.031219,325.620483 298.724609,325.278717 
	C299.728302,324.783966 300.595123,324.011658 301.520355,323.357727 
	C300.451508,322.873230 299.416504,322.097290 298.306335,321.968323 
	C296.337311,321.739532 294.303162,321.729828 292.332306,321.950317 
	C290.222382,322.186401 288.154053,322.794128 286.067566,323.239594 
	C287.785309,324.275513 289.503052,325.311432 291.953705,326.789337 
	C291.953705,333.996399 291.953705,342.114655 291.956635,351.174103 
M205.891861,350.593994 
	C203.764130,350.593994 201.636414,350.593994 198.846039,350.593994 
	C198.846039,348.297394 198.846222,346.519318 198.846008,344.741211 
	C198.845230,338.268494 198.899582,331.795135 198.819748,325.323395 
	C198.780945,322.177277 198.667313,322.178680 195.390900,322.706421 
	C195.390900,333.085236 195.390900,343.441895 195.390900,354.021271 
	C199.093185,354.021271 202.407349,354.138367 205.709152,353.986603 
	C208.697983,353.849274 208.604141,352.476501 205.891861,350.593994 
M149.719666,344.469604 
	C149.719666,347.551849 149.719666,350.634094 149.719666,353.494781 
	C154.367859,353.494781 158.190750,353.494781 162.013657,353.494781 
	C162.107635,352.862122 162.201630,352.229462 162.295624,351.596802 
	C159.296890,351.173920 156.298172,350.751007 153.079498,350.297089 
	C153.079498,341.689209 153.134827,333.369568 153.007980,325.052734 
	C152.992508,324.037872 151.998810,323.037964 151.458450,322.031128 
	C150.880447,323.017151 149.827484,323.991150 149.802094,324.991241 
	C149.645630,331.150757 149.721039,337.316162 149.719666,344.469604 
z"/>
<path fill="#FFFFFF" opacity="1.000000" stroke="none" 
	d="
M248.715881,294.275269 
	C235.548126,282.894806 222.646881,271.750244 209.745621,260.605652 
	C209.336502,260.812500 208.927399,261.019318 208.518280,261.226166 
	C209.369476,274.070587 210.220673,286.915009 211.112701,300.375671 
	C199.244995,301.234650 187.717056,302.069031 175.530350,302.951111 
	C171.415665,245.314285 167.322357,187.976959 163.185059,130.023376 
	C175.073624,129.157883 186.626205,128.316849 198.819366,127.429192 
	C201.323807,162.271439 203.811356,196.878571 206.361633,232.358368 
	C207.717392,231.142365 208.683167,230.443512 209.444977,229.567337 
	C218.625732,219.008133 227.699615,208.354309 237.012390,197.913376 
	C238.515167,196.228577 240.971207,194.596390 243.114410,194.410065 
	C256.864105,193.214706 270.649445,192.429474 285.922363,191.409332 
	C270.439819,209.395432 255.689529,226.530930 240.547531,244.121460 
	C252.986954,254.905823 265.228668,265.518799 277.873169,276.480988 
	C281.282684,267.734650 286.739014,261.893250 295.571747,259.783997 
	C305.964905,257.302124 317.060638,262.795685 321.618164,272.710480 
	C326.189606,282.655426 323.216034,294.224396 314.381836,300.864044 
	C305.787689,307.323273 292.928528,307.087372 285.441254,299.587128 
	C282.226318,296.366638 279.184509,295.379333 274.924957,295.833862 
	C268.805603,296.486938 262.635559,296.966522 256.490509,296.931946 
	C253.983322,296.917847 251.484818,295.364288 248.715881,294.275269 
z"/>
<path fill="#FFFFFF" opacity="1.000000" stroke="none" 
	d="
M430.418213,351.479980 
	C430.407532,342.536560 430.327454,334.037201 430.489532,325.542480 
	C430.514465,324.233948 431.652618,322.946655 432.275970,321.649536 
	C432.821106,321.854279 433.366272,322.059052 433.911407,322.263824 
	C433.911407,326.534790 433.911407,330.805786 433.911407,335.756317 
	C439.103058,331.799866 438.774811,323.863373 445.927063,321.358643 
	C445.616272,322.793213 445.649750,323.202148 445.462036,323.423798 
	C437.817413,332.450928 438.360901,341.560211 445.079651,350.799255 
	C445.608276,351.526184 445.717590,352.558075 446.341888,354.384949 
	C439.111237,352.421875 440.305267,344.816345 434.845612,340.917175 
	C434.440948,345.494110 434.097260,349.381439 433.636047,354.597748 
	C432.265839,353.456360 431.346954,352.690948 430.418213,351.479980 
z"/>
<path fill="#FFFFFF" opacity="1.000000" stroke="none" 
	d="
M340.326599,321.972260 
	C342.085022,322.537781 344.430969,322.933807 344.613281,323.790375 
	C346.709595,333.638763 348.477448,343.557068 350.332764,353.456757 
	C349.949402,353.720245 349.566040,353.983765 349.182678,354.247284 
	C348.217834,353.550659 346.554260,352.969879 346.416016,352.136200 
	C345.957977,349.373474 345.345398,347.709290 341.884369,347.616425 
	C338.124512,347.515533 336.886047,349.006897 336.540283,352.395050 
	C336.466492,353.118103 334.887085,353.687561 334.001312,354.327759 
	C333.495148,354.045349 332.988953,353.762909 332.482758,353.480499 
	C334.958221,342.992554 337.433685,332.504608 340.326599,321.972260 
M338.225250,342.630066 
	C340.206482,343.341125 342.187714,344.052216 345.157745,345.118195 
	C343.833679,338.318848 342.806274,333.042969 341.503418,326.352600 
	C340.261444,332.442108 339.307709,337.118347 338.225250,342.630066 
z"/>
<path fill="#FFFFFF" opacity="1.000000" stroke="none" 
	d="
M112.585358,325.447998 
	C113.150688,324.005829 113.714439,323.013550 114.278198,322.021271 
	C114.863937,322.967590 115.941345,323.905609 115.957451,324.861542 
	C116.083778,332.357361 116.144974,339.860413 115.938400,347.353302 
	C115.822266,351.566071 113.558456,354.260498 109.066330,354.308960 
	C104.692352,354.356171 102.051712,352.078613 101.901611,347.699860 
	C101.639221,340.045471 101.611984,332.380157 101.679512,324.721100 
	C101.687515,323.813416 102.905373,322.916382 103.562386,322.014404 
	C104.087151,323.037323 105.039581,324.049377 105.065865,325.084961 
	C105.213791,330.913361 105.126419,336.747437 105.148613,342.579468 
	C105.154305,344.075317 104.824898,345.793976 105.440285,347.010071 
	C106.214386,348.539795 107.801109,349.658295 109.037186,350.954254 
	C110.187080,349.599365 112.225029,348.309753 112.330284,346.878082 
	C112.744621,341.241974 112.552544,335.561249 112.582298,329.897064 
	C112.589302,328.564026 112.583618,327.230957 112.585358,325.447998 
z"/>
<path fill="#FFFFFF" opacity="1.000000" stroke="none" 
	d="
M243.846832,348.847046 
	C245.821243,349.432251 247.655884,349.640564 249.490509,349.848846 
	C249.434601,347.496460 250.145203,344.720642 249.136444,342.894623 
	C247.751740,340.388031 245.089020,338.575073 242.928436,336.512512 
	C239.958557,333.677399 239.274155,330.150543 240.342178,326.430817 
	C241.476669,322.479584 244.496170,321.044952 248.485443,321.651337 
	C252.218430,322.218811 253.907135,324.645844 254.018906,328.209381 
	C254.042740,328.969177 253.240189,329.754883 252.818375,330.528687 
	C252.140656,329.983978 251.033661,329.549805 250.859955,328.875305 
	C250.131927,326.048126 248.380081,323.614777 245.821533,325.524200 
	C244.409805,326.577728 244.147705,330.661346 244.948380,332.782013 
	C245.793976,335.021698 248.471848,336.604248 250.434280,338.379944 
	C253.842072,341.463440 255.574158,345.434418 253.651413,349.526123 
	C252.626297,351.707642 249.325027,354.065277 247.051773,354.064606 
	C244.772308,354.063934 242.123718,351.541107 240.391571,349.487244 
	C239.669388,348.630951 240.898926,346.128601 241.241028,344.374725 
	C242.063034,345.739868 242.885040,347.105011 243.846832,348.847046 
z"/>
<path fill="#FFFFFF" opacity="1.000000" stroke="none" 
	d="
M397.077087,327.760254 
	C396.625610,329.626007 396.134094,331.123199 395.642578,332.620361 
	C395.000488,331.321320 394.541840,329.879425 393.669739,328.759430 
	C392.586548,327.368317 391.161438,326.243408 389.884033,325.003510 
	C388.782288,326.393585 386.830139,327.724976 386.729401,329.184174 
	C386.340637,334.814789 386.297241,340.502869 386.677368,346.132263 
	C386.789429,347.791840 388.722168,349.328491 389.820496,350.921448 
	C391.164551,349.375305 392.733490,347.963379 393.766602,346.231781 
	C394.367249,345.224945 394.108246,343.705231 394.280426,341.968628 
	C395.446289,342.413208 396.987793,342.813232 396.962280,343.019562 
	C396.587708,346.049805 396.895142,349.795441 395.196564,351.836700 
	C393.767639,353.553894 389.586212,354.342560 387.295197,353.564331 
	C385.341095,352.900543 383.352051,349.521851 383.116547,347.170074 
	C382.522644,341.239197 382.903748,335.210144 382.904816,329.220428 
	C382.905548,325.251648 384.507996,322.332947 388.655518,321.696075 
	C393.049011,321.021423 396.122040,322.729340 397.077087,327.760254 
z"/>
<path fill="#FFFFFF" opacity="1.000000" stroke="none" 
	d="
M67.286514,338.901550 
	C65.017067,339.703827 62.817978,340.119293 60.167957,340.619965 
	C60.167957,344.704620 60.167957,348.961853 60.167957,353.219086 
	C59.697819,353.550323 59.227676,353.881561 58.757538,354.212769 
	C57.888657,353.195740 56.286594,352.193787 56.265285,351.159271 
	C56.070633,341.709076 56.150898,332.253235 56.150898,321.935547 
	C59.975460,321.935547 63.538506,321.850922 67.090340,322.012604 
	C67.738838,322.042145 68.341629,323.075714 68.965530,323.645782 
	C68.247047,324.126801 67.562462,324.946869 66.803474,325.022766 
	C64.835175,325.219604 62.834118,325.088837 60.419754,325.088837 
	C60.419754,328.981384 60.419754,332.660400 60.419754,336.000153 
	C62.856297,336.883362 65.106590,337.699036 67.286514,338.901550 
z"/>
<path fill="#FFFFFF" opacity="1.000000" stroke="none" 
	d="
M291.955170,350.703491 
	C291.953705,342.114655 291.953705,333.996399 291.953705,326.789337 
	C289.503052,325.311432 287.785309,324.275513 286.067566,323.239594 
	C288.154053,322.794128 290.222382,322.186401 292.332306,321.950317 
	C294.303162,321.729828 296.337311,321.739532 298.306335,321.968323 
	C299.416504,322.097290 300.451508,322.873230 301.520355,323.357727 
	C300.595123,324.011658 299.728302,324.783966 298.724609,325.278717 
	C298.031219,325.620483 297.148834,325.578705 295.722443,325.810425 
	C295.722443,334.153778 295.794891,342.423340 295.635986,350.688446 
	C295.614716,351.793518 294.422760,352.876038 293.772919,353.969025 
	C293.167480,353.037384 292.562042,352.105743 291.955170,350.703491 
z"/>
<path fill="#FFFFFF" opacity="1.000000" stroke="none" 
	d="
M206.313110,350.640076 
	C208.604141,352.476501 208.697983,353.849274 205.709152,353.986603 
	C202.407349,354.138367 199.093185,354.021271 195.390900,354.021271 
	C195.390900,343.441895 195.390900,333.085236 195.390900,322.706421 
	C198.667313,322.178680 198.780945,322.177277 198.819748,325.323395 
	C198.899582,331.795135 198.845230,338.268494 198.846008,344.741211 
	C198.846222,346.519318 198.846039,348.297394 198.846039,350.593994 
	C201.636414,350.593994 203.764130,350.593994 206.313110,350.640076 
z"/>
<path fill="#FFFFFF	" opacity="1.000000" stroke="none" 
	d="
M149.719498,343.974609 
	C149.721039,337.316162 149.645630,331.150757 149.802094,324.991241 
	C149.827484,323.991150 150.880447,323.017151 151.458466,322.031128 
	C151.998810,323.037964 152.992508,324.037872 153.007980,325.052734 
	C153.134827,333.369568 153.079498,341.689209 153.079498,350.297089 
	C156.298172,350.751007 159.296890,351.173920 162.295624,351.596802 
	C162.201630,352.229462 162.107635,352.862122 162.013657,353.494781 
	C158.190750,353.494781 154.367859,353.494781 149.719666,353.494781 
	C149.719666,350.634094 149.719666,347.551849 149.719498,343.974609 
z"/>
<path fill="none" opacity="1.000000" stroke="none" 
	d="
M338.289612,342.212311 
	C339.307709,337.118347 340.261444,332.442108 341.503418,326.352600 
	C342.806274,333.042969 343.833679,338.318848 345.157745,345.118195 
	C342.187714,344.052216 340.206482,343.341125 338.289612,342.212311 
z"/>
</svg>